# xmcd CD database file
#
# Track frame offsets:
#	150
#	53350
#	82004
#	151396
#	209372
#	218203
#
# Disc length: 4040 seconds
#
# Revision: 0
# Processed by: cddbd v1.5.1PL0 Copyright (c) Steve Scherf et al.
# Submitted via: CDex 1.51
#
DISCID=4a0fc606
DTITLE=Tigersmilk - From the Bottle
DYEAR=2003
DGENRE=Jazz
TTITLE0=Part 1
TTITLE1=Part 2
TTITLE2=Part 3
TTITLE3=Part 4
TTITLE4=Part 5
TTITLE5=Part 6
EXTD=YEAR: 2003
EXTT0=
EXTT1=
EXTT2=
EXTT3=
EXTT4=
EXTT5=
PLAYORDER=
